<svg xmlns="http://www.w3.org/2000/svg" width="1600" height="900" viewBox="0 0 1600 900" fill="none">
  <defs>
    <linearGradient id="bg2" x1="0" y1="0" x2="1" y2="1">
      <stop offset="0" stop-color="#fdf6e3"/>
      <stop offset="1" stop-color="#f6e7ff"/>
    </linearGradient>
  </defs>
  <rect width="1600" height="900" rx="48" fill="url(#bg2)" />
  <g opacity="0.18" fill="#b179ff">
    <circle cx="210" cy="720" r="170" />
    <circle cx="1420" cy="260" r="200" />
  </g>
  <g stroke="#7c4dff" stroke-width="10" stroke-linecap="round" fill="none">
    <path d="M300 300 C620 180 960 200 1260 360" />
    <path d="M360 420 C720 320 980 320 1240 420" opacity="0.5" />
    <path d="M420 520 C760 460 1080 480 1260 520" opacity="0.25" />
  </g>
  <g>
    <rect x="520" y="210" width="560" height="480" rx="44" fill="#ffffff" stroke="#e6d8ff" stroke-width="10" />
    <rect x="560" y="260" width="480" height="80" rx="20" fill="#f2eaff" />
    <rect x="560" y="370" width="160" height="36" rx="12" fill="#e5d8ff" />
    <rect x="740" y="370" width="220" height="36" rx="12" fill="#e5d8ff" />
    <rect x="560" y="430" width="340" height="36" rx="12" fill="#e5d8ff" opacity="0.8" />
    <rect x="560" y="490" width="440" height="36" rx="12" fill="#e5d8ff" opacity="0.6" />
    <rect x="560" y="550" width="300" height="36" rx="12" fill="#e5d8ff" opacity="0.5" />
    <rect x="560" y="610" width="140" height="36" rx="12" fill="#e5d8ff" opacity="0.35" />
    <g transform="translate(980 470)">
      <circle cx="44" cy="44" r="44" fill="#7c4dff" opacity="0.12" />
      <path d="M32 44 L44 58 L70 30" stroke="#7c4dff" stroke-width="10" stroke-linecap="round" stroke-linejoin="round" fill="none" />
    </g>
  </g>
  <text x="800" y="820" text-anchor="middle" font-family="'Inter', system-ui" font-size="42" fill="#3b2b5d" opacity="0.78">
    Un brief clair pour guider l'assistant
  </text>
</svg>
