<svg xmlns="http://www.w3.org/2000/svg" width="1600" height="900" viewBox="0 0 1600 900" fill="none">
  <defs>
    <linearGradient id="bg1" x1="0" y1="0" x2="1" y2="1">
      <stop offset="0" stop-color="#f3f4ff"/>
      <stop offset="1" stop-color="#dfe8ff"/>
    </linearGradient>
    <linearGradient id="stroke1" x1="0" y1="0" x2="1" y2="1">
      <stop offset="0" stop-color="#2f6fed"/>
      <stop offset="1" stop-color="#8fb0ff"/>
    </linearGradient>
  </defs>
  <rect x="0" y="0" width="1600" height="900" rx="48" fill="url(#bg1)" />
  <g opacity="0.16">
    <circle cx="240" cy="220" r="160" fill="#2f6fed" />
    <circle cx="1340" cy="140" r="190" fill="#7aa2ff" />
    <circle cx="1440" cy="780" r="180" fill="#2f6fed" />
  </g>
  <g stroke="url(#stroke1)" stroke-width="10" fill="none" stroke-linecap="round">
    <path d="M280 620 C520 520 760 760 1040 600"/>
    <path d="M400 540 C640 460 780 520 1060 460" opacity="0.6"/>
    <path d="M360 700 C660 620 940 700 1240 540" opacity="0.3"/>
  </g>
  <g>
    <rect x="430" y="210" width="740" height="430" rx="40" fill="#ffffff" stroke="#d9e3ff" stroke-width="10" />
    <rect x="470" y="260" width="660" height="90" rx="22" fill="#eef2ff" />
    <rect x="470" y="380" width="360" height="44" rx="14" fill="#dfe8ff" />
    <rect x="470" y="450" width="520" height="44" rx="14" fill="#dfe8ff" />
    <rect x="470" y="520" width="220" height="44" rx="14" fill="#dfe8ff" />
    <g transform="translate(1080 410)">
      <circle cx="46" cy="46" r="46" fill="#2f6fed" opacity="0.12" />
      <path d="M36 30 L70 46 L36 62 Z" fill="#2f6fed" />
    </g>
  </g>
  <text x="800" y="810" text-anchor="middle" font-family="'Inter', system-ui" font-size="42" fill="#1f2b4d" opacity="0.76">
    Brouillons guidés par l'IA
  </text>
</svg>
