<svg xmlns="http://www.w3.org/2000/svg" width="1600" height="900" viewBox="0 0 1600 900" fill="none">
  <defs>
    <linearGradient id="bg3" x1="0" y1="0" x2="1" y2="1">
      <stop offset="0" stop-color="#e9fbf1"/>
      <stop offset="1" stop-color="#d8f1ff"/>
    </linearGradient>
    <linearGradient id="line" x1="0" y1="0" x2="1" y2="0">
      <stop offset="0" stop-color="#16a085"/>
      <stop offset="1" stop-color="#2f6fed"/>
    </linearGradient>
  </defs>
  <rect width="1600" height="900" rx="48" fill="url(#bg3)" />
  <g opacity="0.18">
    <circle cx="300" cy="200" r="190" fill="#2f6fed" />
    <circle cx="1380" cy="720" r="220" fill="#1abc9c" />
  </g>
  <g stroke="url(#line)" stroke-width="12" stroke-linecap="round" fill="none">
    <path d="M240 640 C520 520 860 640 1160 420" />
    <path d="M300 540 C660 460 1000 520 1300 360" opacity="0.6" />
    <path d="M360 720 C700 640 1040 660 1320 520" opacity="0.3" />
  </g>
  <g>
    <rect x="420" y="210" width="760" height="460" rx="46" fill="#ffffff" stroke="#d9f2ec" stroke-width="10" />
    <rect x="470" y="260" width="660" height="70" rx="18" fill="#e9f8f2" />
    <rect x="470" y="350" width="220" height="42" rx="14" fill="#d9f2ec" />
    <rect x="470" y="410" width="520" height="42" rx="14" fill="#d9f2ec" opacity="0.85" />
    <rect x="470" y="470" width="340" height="42" rx="14" fill="#d9f2ec" opacity="0.7" />
    <rect x="470" y="530" width="160" height="42" rx="14" fill="#d9f2ec" opacity="0.55" />
    <g transform="translate(1040 330)">
      <circle cx="60" cy="60" r="60" fill="#2f6fed" opacity="0.12" />
      <path d="M58 34 L86 62 L58 90" stroke="#2f6fed" stroke-width="12" stroke-linecap="round" stroke-linejoin="round" fill="none" />
    </g>
  </g>
  <text x="800" y="820" text-anchor="middle" font-family="'Inter', system-ui" font-size="42" fill="#0f4037" opacity="0.8">
    SEO léger, images optimisées
  </text>
</svg>
